<svg id="svg" version="1.1" xmlns="http://www.w3.org/2000/svg" xmlns:xlink="http://www.w3.org/1999/xlink" width="400" height="400" viewBox="0, 0, 400,400"><g id="svgg"><path id="path0" d="M197.200 43.015 C 196.870 43.082,194.890 43.360,192.800 43.632 C 190.710 43.905,188.373 44.459,187.606 44.864 C 186.839 45.269,185.960 45.600,185.651 45.600 C 184.946 45.600,179.191 48.466,176.800 50.009 C 175.810 50.648,174.376 51.454,173.614 51.801 C 172.852 52.147,172.132 52.583,172.014 52.768 C 171.896 52.954,171.138 53.442,170.328 53.853 C 167.517 55.280,161.799 58.533,161.600 58.818 C 161.490 58.976,160.749 59.442,159.954 59.853 C 158.332 60.691,155.405 62.363,153.000 63.825 C 152.120 64.360,150.642 65.163,149.717 65.610 C 148.791 66.057,147.928 66.593,147.800 66.800 C 147.672 67.007,146.809 67.543,145.883 67.990 C 144.958 68.437,143.480 69.246,142.600 69.789 C 141.720 70.331,140.280 71.153,139.400 71.615 C 138.520 72.077,136.810 73.063,135.600 73.806 C 134.390 74.549,132.860 75.447,132.200 75.800 C 131.540 76.154,130.100 76.967,129.000 77.607 C 127.900 78.247,126.190 79.234,125.200 79.800 C 124.210 80.366,122.680 81.261,121.800 81.788 C 120.920 82.316,119.390 83.216,118.400 83.788 C 117.410 84.361,115.880 85.267,115.000 85.802 C 114.120 86.337,112.642 87.146,111.717 87.599 C 110.791 88.052,109.928 88.593,109.800 88.800 C 109.672 89.007,108.809 89.548,107.883 90.001 C 105.966 90.940,103.337 92.396,101.000 93.813 C 100.120 94.346,98.770 95.095,98.000 95.476 C 97.230 95.857,96.307 96.408,95.949 96.702 C 95.591 96.995,94.562 97.632,93.662 98.118 C 91.941 99.046,86.193 102.374,83.680 103.897 C 82.866 104.391,81.568 105.111,80.795 105.497 C 80.022 105.884,78.824 106.605,78.133 107.100 C 77.442 107.595,76.777 108.000,76.656 108.000 C 76.432 108.000,74.480 109.232,72.080 110.889 C 68.793 113.158,63.276 119.137,61.644 122.200 C 61.175 123.080,60.629 124.070,60.431 124.400 C 59.409 126.100,58.001 129.652,57.576 131.600 C 57.311 132.810,56.894 134.053,56.648 134.361 C 56.322 134.770,56.200 152.486,56.200 199.561 L 56.200 264.200 57.100 266.702 C 57.595 268.077,58.001 269.607,58.001 270.102 C 58.002 270.596,58.340 271.552,58.752 272.228 C 59.163 272.903,59.634 273.893,59.798 274.428 C 60.572 276.954,65.490 283.523,69.033 286.761 C 72.082 289.547,73.418 290.401,86.729 298.079 C 87.758 298.673,89.345 299.513,90.256 299.946 C 91.167 300.379,92.034 300.931,92.183 301.173 C 92.333 301.414,93.027 301.887,93.727 302.224 C 94.427 302.560,95.853 303.323,96.895 303.918 C 101.210 306.382,108.627 310.674,110.351 311.705 C 111.368 312.313,112.941 313.166,113.847 313.601 C 114.753 314.035,115.720 314.663,115.996 314.995 C 116.272 315.328,116.672 315.600,116.884 315.600 C 117.265 315.600,120.485 317.401,124.522 319.873 C 125.665 320.572,127.320 321.518,128.200 321.974 C 129.080 322.430,130.700 323.333,131.800 323.980 C 132.900 324.627,134.340 325.446,135.000 325.800 C 135.660 326.153,137.190 327.062,138.400 327.819 C 139.610 328.576,141.275 329.494,142.100 329.859 C 142.925 330.223,143.600 330.655,143.600 330.817 C 143.600 330.980,144.275 331.411,145.100 331.775 C 145.925 332.139,148.400 333.496,150.600 334.790 C 155.753 337.820,164.504 342.826,166.014 343.607 C 166.659 343.941,167.505 344.443,167.893 344.723 C 169.044 345.551,171.590 347.013,175.000 348.805 C 176.760 349.730,178.290 350.615,178.400 350.772 C 178.608 351.071,183.143 353.278,186.600 354.763 C 193.230 357.613,206.671 357.639,213.000 354.815 C 213.880 354.422,215.261 353.889,216.068 353.630 C 216.875 353.371,217.752 352.898,218.017 352.580 C 218.282 352.261,218.701 351.999,218.949 351.999 C 219.197 351.998,220.029 351.593,220.798 351.099 C 221.566 350.604,223.546 349.444,225.198 348.520 C 228.716 346.550,231.180 345.125,233.400 343.775 C 234.280 343.240,235.758 342.437,236.683 341.990 C 237.609 341.543,238.462 341.023,238.578 340.835 C 238.695 340.647,239.557 340.102,240.495 339.625 C 241.433 339.148,243.024 338.272,244.031 337.679 C 246.631 336.146,252.601 332.721,254.039 331.937 C 254.708 331.572,255.572 330.987,255.959 330.637 C 256.346 330.287,256.811 330.000,256.991 330.000 C 257.172 330.000,258.598 329.252,260.160 328.338 C 261.722 327.425,265.340 325.327,268.200 323.677 C 271.060 322.027,274.981 319.760,276.914 318.639 C 278.846 317.517,281.096 316.264,281.914 315.853 C 282.731 315.442,283.490 314.971,283.600 314.807 C 283.710 314.642,284.589 314.078,285.554 313.554 C 288.362 312.027,290.493 310.822,292.054 309.879 C 294.299 308.522,301.095 304.687,302.733 303.853 C 303.540 303.442,304.296 302.954,304.414 302.768 C 304.532 302.583,305.252 302.144,306.014 301.794 C 306.776 301.444,308.390 300.544,309.600 299.793 C 310.810 299.043,312.250 298.232,312.800 297.992 C 313.736 297.583,314.450 297.145,318.322 294.600 C 319.158 294.050,320.075 293.600,320.358 293.600 C 320.642 293.600,321.352 293.227,321.937 292.770 C 322.522 292.314,324.170 291.200,325.600 290.294 C 328.078 288.725,336.000 281.450,336.000 280.743 C 336.000 280.559,336.784 279.263,337.742 277.864 C 338.699 276.465,339.611 274.812,339.766 274.192 C 339.922 273.571,340.398 272.620,340.825 272.078 C 341.251 271.536,341.600 270.618,341.600 270.038 C 341.600 269.458,341.940 267.728,342.355 266.192 C 342.770 264.656,343.211 262.770,343.335 262.000 C 343.954 258.150,343.731 137.408,343.101 135.600 C 342.756 134.610,342.270 132.814,342.021 131.608 C 341.773 130.403,341.145 128.513,340.628 127.408 C 340.110 126.304,339.574 125.130,339.437 124.800 C 339.200 124.230,338.312 122.845,335.948 119.353 C 334.005 116.484,328.535 111.354,325.800 109.837 C 325.140 109.471,323.790 108.637,322.800 107.985 C 321.810 107.333,320.280 106.427,319.400 105.972 C 318.520 105.517,316.810 104.537,315.600 103.794 C 314.390 103.051,312.860 102.162,312.200 101.820 C 311.540 101.478,310.190 100.660,309.200 100.003 C 308.210 99.346,306.680 98.437,305.800 97.983 C 304.920 97.530,303.364 96.673,302.341 96.079 C 301.319 95.486,299.609 94.499,298.541 93.886 C 297.474 93.273,295.880 92.333,295.000 91.798 C 294.120 91.263,292.659 90.461,291.753 90.017 C 290.847 89.573,289.880 88.937,289.604 88.605 C 289.328 88.272,288.879 88.000,288.607 88.000 C 288.334 88.000,287.447 87.549,286.636 86.998 C 285.824 86.447,283.954 85.349,282.480 84.558 C 281.006 83.767,279.530 82.902,279.200 82.637 C 278.870 82.372,278.150 81.928,277.600 81.651 C 276.512 81.102,274.189 79.776,270.537 77.620 C 267.815 76.012,266.777 75.406,264.136 73.886 C 263.071 73.273,261.480 72.334,260.600 71.800 C 259.720 71.265,258.460 70.553,257.800 70.217 C 257.140 69.880,255.610 68.975,254.400 68.206 C 253.190 67.436,251.480 66.434,250.600 65.979 C 248.235 64.756,246.595 63.821,245.328 62.976 C 243.977 62.075,242.364 61.143,240.200 60.014 C 239.320 59.555,237.610 58.563,236.400 57.811 C 235.190 57.058,233.660 56.153,233.000 55.800 C 232.340 55.446,230.900 54.633,229.800 53.993 C 228.700 53.353,226.990 52.366,226.000 51.800 C 225.010 51.234,223.480 50.342,222.600 49.818 C 220.347 48.476,214.640 45.600,214.230 45.600 C 214.042 45.600,213.148 45.248,212.244 44.819 C 209.810 43.662,199.875 42.471,197.200 43.015 M218.367 105.990 C 220.236 106.527,221.528 107.847,222.039 109.743 C 222.688 112.153,221.793 122.216,220.548 126.502 C 220.345 127.204,225.308 130.000,226.757 130.000 C 227.308 130.000,231.927 132.030,233.200 132.832 C 233.530 133.040,234.520 133.575,235.400 134.022 C 236.280 134.469,237.635 135.231,238.411 135.717 C 239.187 136.203,240.422 136.960,241.155 137.400 C 241.888 137.840,244.553 139.865,247.077 141.900 C 252.685 146.421,252.445 146.435,258.200 141.246 C 258.640 140.849,259.391 140.318,259.869 140.065 C 260.347 139.812,260.977 139.373,261.269 139.088 C 265.026 135.433,269.486 134.609,272.373 137.038 C 273.439 137.936,274.298 139.274,278.000 145.809 C 278.550 146.780,279.626 148.615,280.391 149.887 C 281.156 151.159,282.011 152.650,282.292 153.200 C 282.573 153.750,283.341 155.010,283.998 156.000 C 284.654 156.990,285.555 158.520,286.000 159.400 C 287.164 161.705,288.482 164.025,289.384 165.358 C 293.010 170.713,290.498 175.343,282.420 178.193 C 281.457 178.533,280.474 178.971,280.235 179.168 C 279.996 179.364,278.795 179.816,277.566 180.171 C 275.311 180.825,272.881 182.761,273.355 183.528 C 274.825 185.905,275.418 201.101,274.390 209.994 C 273.412 218.448,273.510 218.905,276.499 219.792 C 277.601 220.120,278.740 220.584,279.029 220.824 C 279.318 221.064,280.483 221.505,281.618 221.805 C 282.752 222.104,283.989 222.628,284.366 222.970 C 284.744 223.311,285.596 223.699,286.260 223.832 C 290.831 224.746,292.583 231.928,289.180 235.800 C 288.793 236.240,288.183 237.230,287.824 238.000 C 287.465 238.770,286.735 240.120,286.200 241.000 C 285.666 241.880,284.727 243.474,284.114 244.541 C 283.501 245.609,282.519 247.319,281.931 248.341 C 281.343 249.364,280.568 250.740,280.210 251.400 C 279.851 252.060,279.033 253.500,278.393 254.600 C 277.753 255.700,276.764 257.410,276.195 258.400 C 273.560 262.982,273.238 263.368,271.127 264.461 C 267.887 266.139,266.174 265.701,261.489 262.000 C 260.236 261.010,257.909 259.165,256.317 257.900 C 252.587 254.936,251.913 254.920,248.661 257.719 C 247.308 258.884,245.811 260.099,245.335 260.419 C 244.860 260.739,243.377 261.765,242.040 262.700 C 240.703 263.635,239.486 264.400,239.336 264.400 C 239.186 264.400,238.779 264.651,238.431 264.958 C 237.524 265.761,230.159 269.510,227.800 270.370 C 226.700 270.772,225.170 271.327,224.400 271.605 C 220.891 272.872,221.104 272.671,221.315 274.509 C 223.199 290.949,223.068 292.342,219.441 294.422 L 217.400 295.592 200.311 295.596 C 174.883 295.602,175.082 295.796,178.825 274.600 C 179.253 272.180,179.782 268.098,180.000 265.528 C 180.219 262.959,180.558 260.437,180.753 259.924 C 181.084 259.053,181.646 255.001,182.214 249.388 C 182.500 246.565,182.339 246.352,178.600 244.577 C 177.280 243.951,175.750 243.139,175.200 242.773 C 174.650 242.407,173.120 241.417,171.800 240.574 C 169.518 239.115,163.211 233.105,161.312 230.581 C 160.824 229.931,160.014 228.872,159.512 228.227 C 159.010 227.582,158.240 226.375,157.800 225.543 C 155.528 221.251,153.999 217.947,153.991 217.311 C 153.986 216.920,153.615 215.790,153.165 214.800 C 152.657 213.682,152.032 210.613,151.515 206.702 L 150.682 200.405 151.541 193.882 C 152.478 186.775,152.958 185.223,156.569 177.600 C 159.639 171.121,166.863 163.216,173.600 158.965 C 176.714 157.000,181.938 154.485,184.349 153.791 C 185.477 153.466,187.345 152.899,188.500 152.532 C 195.177 150.406,212.238 151.826,218.500 155.028 C 219.545 155.563,220.625 156.004,220.900 156.008 C 221.505 156.017,225.423 158.354,228.874 160.763 C 231.404 162.528,237.248 168.079,238.391 169.803 C 241.452 174.413,242.198 175.532,242.798 176.408 C 243.177 176.962,243.623 177.862,243.790 178.408 C 243.956 178.953,244.425 180.030,244.833 180.800 C 245.630 182.306,247.020 186.127,247.597 188.400 C 248.181 190.698,249.248 200.663,249.018 201.668 C 248.901 202.181,248.535 204.992,248.205 207.915 C 247.875 210.838,247.353 213.718,247.045 214.315 C 246.736 214.912,246.268 216.210,246.005 217.200 C 245.741 218.190,245.286 219.270,244.994 219.600 C 244.702 219.930,244.338 220.740,244.185 221.400 C 243.923 222.533,243.583 223.145,240.904 227.300 C 238.973 230.295,234.513 235.391,232.222 237.218 C 231.000 238.194,230.000 239.134,230.000 239.308 C 230.000 239.483,229.685 239.739,229.300 239.879 C 228.915 240.019,227.790 240.674,226.800 241.336 C 225.810 241.998,224.547 242.843,223.992 243.214 C 223.438 243.584,222.538 244.028,221.992 244.200 C 221.447 244.371,220.373 244.847,219.606 245.256 C 216.463 246.933,212.296 245.318,210.613 241.770 C 209.350 239.110,210.734 235.195,213.463 233.701 C 214.088 233.359,215.435 232.611,216.456 232.040 C 217.477 231.468,219.036 230.600,219.919 230.111 C 221.685 229.134,227.270 223.699,228.711 221.555 C 231.073 218.043,231.740 216.913,232.112 215.800 C 232.333 215.140,232.737 214.330,233.010 214.000 C 235.451 211.053,236.600 197.364,234.856 192.000 C 234.391 190.570,234.008 189.167,234.005 188.883 C 234.002 188.599,233.460 187.212,232.800 185.800 C 232.140 184.388,231.600 183.074,231.600 182.879 C 231.600 182.684,231.240 182.198,230.800 181.800 C 230.360 181.402,230.000 180.913,230.000 180.715 C 230.000 180.251,227.887 177.498,225.813 175.258 C 223.132 172.362,217.523 168.367,215.390 167.835 C 214.736 167.671,213.930 167.305,213.600 167.021 C 212.375 165.967,205.482 164.331,201.400 164.127 C 190.110 163.560,178.183 169.236,171.160 178.516 C 165.010 186.643,162.004 202.061,165.117 209.515 C 165.603 210.678,166.006 211.938,166.013 212.315 C 166.042 213.913,169.321 219.634,172.137 223.000 C 176.648 228.391,182.636 232.621,188.000 234.204 C 192.003 235.386,193.567 236.128,194.852 237.457 L 196.200 238.851 196.110 243.525 C 196.061 246.096,195.739 249.730,195.395 251.600 C 195.051 253.470,194.512 257.430,194.197 260.400 C 193.882 263.370,193.356 267.150,193.028 268.800 C 191.995 273.999,191.457 280.746,192.022 281.426 C 192.429 281.917,193.808 281.998,200.156 281.908 L 207.800 281.800 207.789 278.200 C 207.783 276.220,207.529 273.026,207.225 271.103 C 206.140 264.244,208.849 261.222,217.354 259.803 C 218.209 259.660,219.556 259.196,220.348 258.772 C 221.140 258.347,222.041 258.000,222.350 258.000 C 222.961 258.000,228.435 255.351,231.000 253.814 C 231.880 253.287,233.140 252.547,233.800 252.171 C 235.552 251.171,242.621 245.212,245.382 242.407 C 248.879 238.853,253.441 238.245,256.381 240.940 C 256.942 241.453,258.840 242.932,260.600 244.225 C 262.360 245.518,263.944 246.807,264.120 247.088 C 264.617 247.883,267.175 247.739,267.477 246.900 C 267.731 246.191,270.260 241.600,271.892 238.884 C 274.696 234.216,274.663 233.147,271.684 232.262 C 270.635 231.950,269.152 231.315,268.388 230.849 C 267.625 230.384,266.619 230.002,266.154 230.001 C 265.689 230.001,264.864 229.651,264.322 229.225 C 263.780 228.798,262.848 228.327,262.250 228.177 C 261.112 227.891,258.432 224.769,258.358 223.642 C 258.261 222.185,258.508 220.527,258.994 219.359 C 259.277 218.677,259.637 217.327,259.793 216.359 C 259.948 215.392,260.461 213.160,260.932 211.400 C 262.088 207.077,262.201 193.025,261.105 189.800 C 260.731 188.700,260.239 186.630,260.011 185.200 C 259.783 183.770,259.335 181.880,259.016 181.000 C 257.487 176.787,258.946 173.936,263.845 171.568 C 265.629 170.706,267.319 170.000,267.601 170.000 C 267.882 170.000,268.852 169.646,269.756 169.214 C 270.660 168.782,272.073 168.162,272.895 167.837 C 274.614 167.156,274.649 165.894,273.023 163.200 C 272.558 162.430,271.882 161.260,271.520 160.600 C 266.541 151.520,266.357 151.370,263.273 153.918 C 251.961 163.265,251.023 163.362,243.277 156.000 C 241.078 153.910,238.856 151.832,238.339 151.383 C 236.936 150.162,230.604 146.000,230.150 146.000 C 229.933 146.000,229.158 145.559,228.428 145.021 C 227.699 144.482,226.596 143.931,225.978 143.795 C 225.361 143.660,224.645 143.295,224.387 142.985 C 224.130 142.675,223.263 142.302,222.460 142.157 C 221.657 142.011,220.307 141.543,219.460 141.117 C 218.612 140.691,216.812 140.169,215.460 139.957 C 207.694 138.739,206.723 136.725,207.975 124.439 C 208.678 117.532,209.274 118.000,199.773 118.000 C 190.535 118.000,191.092 117.395,192.040 126.400 C 193.102 136.486,192.135 138.297,184.884 139.809 C 183.363 140.126,181.327 140.745,180.359 141.184 C 179.392 141.623,178.285 141.986,177.900 141.991 C 177.515 141.996,176.345 142.437,175.300 142.972 C 174.255 143.507,172.950 144.145,172.400 144.391 C 171.850 144.637,170.741 145.235,169.936 145.719 C 169.130 146.204,167.510 147.166,166.336 147.858 C 163.774 149.366,157.355 154.703,154.662 157.564 C 149.632 162.907,147.280 162.532,137.942 154.900 C 134.075 151.740,133.213 151.656,131.792 154.300 C 131.231 155.345,130.334 156.920,129.800 157.800 C 129.265 158.680,128.499 160.030,128.098 160.800 C 127.696 161.570,126.966 162.830,126.475 163.600 C 125.486 165.150,125.449 167.144,126.400 167.619 C 129.603 169.221,131.348 170.000,131.731 170.000 C 132.138 170.000,133.533 170.611,137.907 172.707 C 139.825 173.626,141.519 176.595,141.155 178.400 C 140.061 183.816,139.187 187.575,138.783 188.601 C 137.500 191.861,137.719 208.175,139.114 213.200 C 139.572 214.850,140.350 217.714,140.842 219.565 L 141.738 222.930 140.569 225.094 C 139.445 227.174,135.163 229.993,133.111 230.002 C 132.830 230.004,132.060 230.301,131.400 230.663 C 130.740 231.025,129.300 231.627,128.200 232.000 C 125.642 232.868,125.072 234.091,126.224 236.239 C 126.651 237.034,127.360 238.362,127.800 239.189 C 128.240 240.016,128.849 240.989,129.153 241.351 C 129.809 242.133,130.845 243.958,131.961 246.300 C 133.062 248.610,134.132 248.569,137.182 246.100 C 144.063 240.530,144.685 240.107,146.710 239.622 C 149.730 238.897,151.195 239.506,154.800 242.980 C 156.450 244.571,159.510 247.280,161.600 249.001 C 167.154 253.575,167.967 254.583,167.985 256.920 C 168.028 262.362,162.214 265.634,157.825 262.638 C 155.638 261.146,153.448 259.466,151.177 257.540 C 147.919 254.777,147.420 254.749,144.360 257.160 C 133.541 265.685,132.562 266.133,128.806 264.284 C 127.062 263.425,125.626 261.772,124.041 258.800 C 121.824 254.644,118.862 249.473,114.990 243.000 C 113.806 241.020,112.552 238.777,112.203 238.015 C 111.855 237.253,111.321 236.353,111.018 236.015 C 110.282 235.194,108.800 231.233,108.800 230.084 C 108.800 228.092,111.839 224.008,113.331 223.996 C 113.589 223.994,114.700 223.550,115.800 223.009 C 116.900 222.468,118.070 222.018,118.400 222.010 C 118.730 222.002,119.540 221.699,120.200 221.337 C 120.860 220.975,122.300 220.374,123.400 220.002 C 126.644 218.903,126.868 217.636,125.371 208.848 C 124.347 202.833,124.622 196.059,126.343 184.884 C 126.718 182.456,125.421 180.771,122.730 180.189 C 121.998 180.031,120.591 179.474,119.603 178.951 C 118.615 178.428,117.625 178.003,117.403 178.008 C 113.190 178.087,107.503 171.500,109.190 168.495 C 109.404 168.113,109.864 167.170,110.211 166.400 C 110.559 165.630,111.328 164.164,111.922 163.143 C 112.515 162.122,113.867 159.782,114.926 157.943 C 115.985 156.104,117.460 153.610,118.204 152.400 C 118.949 151.190,119.845 149.660,120.197 149.000 C 120.548 148.340,121.356 146.900,121.993 145.800 C 122.629 144.700,123.566 143.061,124.075 142.157 C 126.811 137.298,127.933 136.211,130.659 135.776 C 132.373 135.502,135.073 136.116,135.800 136.944 C 136.020 137.195,137.280 138.204,138.600 139.187 C 139.920 140.170,142.362 142.083,144.026 143.437 C 147.627 146.368,147.236 146.445,153.200 141.648 C 158.316 137.534,160.148 136.310,164.600 134.029 C 165.480 133.579,166.470 133.042,166.800 132.837 C 168.135 132.005,172.791 130.000,173.386 130.000 C 174.134 130.000,178.639 127.784,178.966 127.255 C 179.089 127.056,179.002 125.877,178.773 124.637 C 176.637 113.082,177.467 107.165,181.385 106.025 C 183.077 105.534,216.663 105.502,218.367 105.990 M208.367 301.990 C 213.826 303.556,214.701 311.601,209.681 314.073 C 205.856 315.957,191.455 315.525,188.837 313.447 C 185.140 310.514,187.089 302.904,191.780 301.953 C 193.806 301.542,206.907 301.572,208.367 301.990 M204.743 323.356 C 206.991 325.604,206.965 330.422,204.693 332.693 C 202.399 334.988,197.605 334.992,195.314 332.701 C 192.295 329.682,193.239 323.585,196.978 321.959 C 199.042 321.061,203.195 321.809,204.743 323.356 " stroke="none" fill="#be2769" fill-rule="evenodd"></path><path id="path1" d="M0.000 200.000 L 0.000 400.000 200.000 400.000 L 400.000 400.000 400.000 200.000 L 400.000 0.000 200.000 0.000 L 0.000 0.000 0.000 200.000 M205.865 43.419 C 208.517 43.765,211.323 44.381,212.244 44.819 C 213.148 45.248,214.042 45.600,214.230 45.600 C 214.640 45.600,220.347 48.476,222.600 49.818 C 223.480 50.342,225.010 51.234,226.000 51.800 C 226.990 52.366,228.700 53.353,229.800 53.993 C 230.900 54.633,232.340 55.446,233.000 55.800 C 233.660 56.153,235.190 57.058,236.400 57.811 C 237.610 58.563,239.320 59.555,240.200 60.014 C 242.364 61.143,243.977 62.075,245.328 62.976 C 246.595 63.821,248.235 64.756,250.600 65.979 C 251.480 66.434,253.190 67.436,254.400 68.206 C 255.610 68.975,257.140 69.880,257.800 70.217 C 258.460 70.553,259.720 71.265,260.600 71.800 C 261.480 72.334,263.071 73.273,264.136 73.886 C 266.777 75.406,267.815 76.012,270.537 77.620 C 274.189 79.776,276.512 81.102,277.600 81.651 C 278.150 81.928,278.870 82.372,279.200 82.637 C 279.530 82.902,281.006 83.767,282.480 84.558 C 283.954 85.349,285.824 86.447,286.636 86.998 C 287.447 87.549,288.334 88.000,288.607 88.000 C 288.879 88.000,289.328 88.272,289.604 88.605 C 289.880 88.937,290.847 89.573,291.753 90.017 C 292.659 90.461,294.120 91.263,295.000 91.798 C 295.880 92.333,297.474 93.273,298.541 93.886 C 299.609 94.499,301.319 95.486,302.341 96.079 C 303.364 96.673,304.920 97.530,305.800 97.983 C 306.680 98.437,308.210 99.346,309.200 100.003 C 310.190 100.660,311.540 101.478,312.200 101.820 C 312.860 102.162,314.390 103.051,315.600 103.794 C 316.810 104.537,318.520 105.517,319.400 105.972 C 320.280 106.427,321.810 107.333,322.800 107.985 C 323.790 108.637,325.140 109.471,325.800 109.837 C 328.535 111.354,334.005 116.484,335.948 119.353 C 338.312 122.845,339.200 124.230,339.437 124.800 C 339.574 125.130,340.110 126.304,340.628 127.408 C 341.145 128.513,341.773 130.403,342.021 131.608 C 342.270 132.814,342.756 134.610,343.101 135.600 C 343.731 137.408,343.954 258.150,343.335 262.000 C 343.211 262.770,342.770 264.656,342.355 266.192 C 341.940 267.728,341.600 269.458,341.600 270.038 C 341.600 270.618,341.251 271.536,340.825 272.078 C 340.398 272.620,339.922 273.571,339.766 274.192 C 339.611 274.812,338.699 276.465,337.742 277.864 C 336.784 279.263,336.000 280.559,336.000 280.743 C 336.000 281.450,328.078 288.725,325.600 290.294 C 324.170 291.200,322.522 292.314,321.937 292.770 C 321.352 293.227,320.642 293.600,320.358 293.600 C 320.075 293.600,319.158 294.050,318.322 294.600 C 314.450 297.145,313.736 297.583,312.800 297.992 C 312.250 298.232,310.810 299.043,309.600 299.793 C 308.390 300.544,306.776 301.444,306.014 301.794 C 305.252 302.144,304.532 302.583,304.414 302.768 C 304.296 302.954,303.540 303.442,302.733 303.853 C 301.095 304.687,294.299 308.522,292.054 309.879 C 290.493 310.822,288.362 312.027,285.554 313.554 C 284.589 314.078,283.710 314.642,283.600 314.807 C 283.490 314.971,282.731 315.442,281.914 315.853 C 281.096 316.264,278.846 317.517,276.914 318.639 C 274.981 319.760,271.060 322.027,268.200 323.677 C 265.340 325.327,261.722 327.425,260.160 328.338 C 258.598 329.252,257.172 330.000,256.991 330.000 C 256.811 330.000,256.346 330.287,255.959 330.637 C 255.572 330.987,254.708 331.572,254.039 331.937 C 252.601 332.721,246.631 336.146,244.031 337.679 C 243.024 338.272,241.433 339.148,240.495 339.625 C 239.557 340.102,238.695 340.647,238.578 340.835 C 238.462 341.023,237.609 341.543,236.683 341.990 C 235.758 342.437,234.280 343.240,233.400 343.775 C 231.180 345.125,228.716 346.550,225.198 348.520 C 223.546 349.444,221.566 350.604,220.798 351.099 C 220.029 351.593,219.197 351.998,218.949 351.999 C 218.701 351.999,218.282 352.261,218.017 352.580 C 217.752 352.898,216.875 353.371,216.068 353.630 C 215.261 353.889,213.880 354.422,213.000 354.815 C 206.671 357.639,193.230 357.613,186.600 354.763 C 183.143 353.278,178.608 351.071,178.400 350.772 C 178.290 350.615,176.760 349.730,175.000 348.805 C 171.590 347.013,169.044 345.551,167.893 344.723 C 167.505 344.443,166.659 343.941,166.014 343.607 C 164.504 342.826,155.753 337.820,150.600 334.790 C 148.400 333.496,145.925 332.139,145.100 331.775 C 144.275 331.411,143.600 330.980,143.600 330.817 C 143.600 330.655,142.925 330.223,142.100 329.859 C 141.275 329.494,139.610 328.576,138.400 327.819 C 137.190 327.062,135.660 326.153,135.000 325.800 C 134.340 325.446,132.900 324.627,131.800 323.980 C 130.700 323.333,129.080 322.430,128.200 321.974 C 127.320 321.518,125.665 320.572,124.522 319.873 C 120.485 317.401,117.265 315.600,116.884 315.600 C 116.672 315.600,116.272 315.328,115.996 314.995 C 115.720 314.663,114.753 314.035,113.847 313.601 C 112.941 313.166,111.368 312.313,110.351 311.705 C 108.627 310.674,101.210 306.382,96.895 303.918 C 95.853 303.323,94.427 302.560,93.727 302.224 C 93.027 301.887,92.333 301.414,92.183 301.173 C 92.034 300.931,91.167 300.379,90.256 299.946 C 89.345 299.513,87.758 298.673,86.729 298.079 C 73.418 290.401,72.082 289.547,69.033 286.761 C 65.490 283.523,60.572 276.954,59.798 274.428 C 59.634 273.893,59.163 272.903,58.752 272.228 C 58.340 271.552,58.002 270.596,58.001 270.102 C 58.001 269.607,57.595 268.077,57.100 266.702 L 56.200 264.200 56.200 199.561 C 56.200 152.486,56.322 134.770,56.648 134.361 C 56.894 134.053,57.311 132.810,57.576 131.600 C 58.001 129.652,59.409 126.100,60.431 124.400 C 60.629 124.070,61.175 123.080,61.644 122.200 C 63.276 119.137,68.793 113.158,72.080 110.889 C 74.480 109.232,76.432 108.000,76.656 108.000 C 76.777 108.000,77.442 107.595,78.133 107.100 C 78.824 106.605,80.022 105.884,80.795 105.497 C 81.568 105.111,82.866 104.391,83.680 103.897 C 86.193 102.374,91.941 99.046,93.662 98.118 C 94.562 97.632,95.591 96.995,95.949 96.702 C 96.307 96.408,97.230 95.857,98.000 95.476 C 98.770 95.095,100.120 94.346,101.000 93.813 C 103.337 92.396,105.966 90.940,107.883 90.001 C 108.809 89.548,109.672 89.007,109.800 88.800 C 109.928 88.593,110.791 88.052,111.717 87.599 C 112.642 87.146,114.120 86.337,115.000 85.802 C 115.880 85.267,117.410 84.361,118.400 83.788 C 119.390 83.216,120.920 82.316,121.800 81.788 C 122.680 81.261,124.210 80.366,125.200 79.800 C 126.190 79.234,127.900 78.247,129.000 77.607 C 130.100 76.967,131.540 76.154,132.200 75.800 C 132.860 75.447,134.390 74.549,135.600 73.806 C 136.810 73.063,138.520 72.077,139.400 71.615 C 140.280 71.153,141.720 70.331,142.600 69.789 C 143.480 69.246,144.958 68.437,145.883 67.990 C 146.809 67.543,147.672 67.007,147.800 66.800 C 147.928 66.593,148.791 66.057,149.717 65.610 C 150.642 65.163,152.120 64.360,153.000 63.825 C 155.405 62.363,158.332 60.691,159.954 59.853 C 160.749 59.442,161.490 58.976,161.600 58.818 C 161.799 58.533,167.517 55.280,170.328 53.853 C 171.138 53.442,171.896 52.954,172.014 52.768 C 172.132 52.583,172.852 52.147,173.614 51.801 C 174.376 51.454,175.810 50.648,176.800 50.009 C 179.191 48.466,184.946 45.600,185.651 45.600 C 185.960 45.600,186.839 45.269,187.606 44.864 C 188.373 44.459,190.710 43.905,192.800 43.632 C 194.890 43.360,196.870 43.082,197.200 43.015 C 198.674 42.715,201.477 42.845,205.865 43.419 M181.385 106.025 C 177.467 107.165,176.637 113.082,178.773 124.637 C 179.002 125.877,179.089 127.056,178.966 127.255 C 178.639 127.784,174.134 130.000,173.386 130.000 C 172.791 130.000,168.135 132.005,166.800 132.837 C 166.470 133.042,165.480 133.579,164.600 134.029 C 160.148 136.310,158.316 137.534,153.200 141.648 C 147.236 146.445,147.627 146.368,144.026 143.437 C 142.362 142.083,139.920 140.170,138.600 139.187 C 137.280 138.204,136.020 137.195,135.800 136.944 C 135.073 136.116,132.373 135.502,130.659 135.776 C 127.933 136.211,126.811 137.298,124.075 142.157 C 123.566 143.061,122.629 144.700,121.993 145.800 C 121.356 146.900,120.548 148.340,120.197 149.000 C 119.845 149.660,118.949 151.190,118.204 152.400 C 117.460 153.610,115.985 156.104,114.926 157.943 C 113.867 159.782,112.515 162.122,111.922 163.143 C 111.328 164.164,110.559 165.630,110.211 166.400 C 109.864 167.170,109.404 168.113,109.190 168.495 C 107.503 171.500,113.190 178.087,117.403 178.008 C 117.625 178.003,118.615 178.428,119.603 178.951 C 120.591 179.474,121.998 180.031,122.730 180.189 C 125.421 180.771,126.718 182.456,126.343 184.884 C 124.622 196.059,124.347 202.833,125.371 208.848 C 126.868 217.636,126.644 218.903,123.400 220.002 C 122.300 220.374,120.860 220.975,120.200 221.337 C 119.540 221.699,118.730 222.002,118.400 222.010 C 118.070 222.018,116.900 222.468,115.800 223.009 C 114.700 223.550,113.589 223.994,113.331 223.996 C 111.839 224.008,108.800 228.092,108.800 230.084 C 108.800 231.233,110.282 235.194,111.018 236.015 C 111.321 236.353,111.855 237.253,112.203 238.015 C 112.552 238.777,113.806 241.020,114.990 243.000 C 118.862 249.473,121.824 254.644,124.041 258.800 C 125.626 261.772,127.062 263.425,128.806 264.284 C 132.562 266.133,133.541 265.685,144.360 257.160 C 147.420 254.749,147.919 254.777,151.177 257.540 C 153.448 259.466,155.638 261.146,157.825 262.638 C 162.214 265.634,168.028 262.362,167.985 256.920 C 167.967 254.583,167.154 253.575,161.600 249.001 C 159.510 247.280,156.450 244.571,154.800 242.980 C 151.195 239.506,149.730 238.897,146.710 239.622 C 144.685 240.107,144.063 240.530,137.182 246.100 C 134.132 248.569,133.062 248.610,131.961 246.300 C 130.845 243.958,129.809 242.133,129.153 241.351 C 128.849 240.989,128.240 240.016,127.800 239.189 C 127.360 238.362,126.651 237.034,126.224 236.239 C 125.072 234.091,125.642 232.868,128.200 232.000 C 129.300 231.627,130.740 231.025,131.400 230.663 C 132.060 230.301,132.830 230.004,133.111 230.002 C 135.163 229.993,139.445 227.174,140.569 225.094 L 141.738 222.930 140.842 219.565 C 140.350 217.714,139.572 214.850,139.114 213.200 C 137.719 208.175,137.500 191.861,138.783 188.601 C 139.187 187.575,140.061 183.816,141.155 178.400 C 141.519 176.595,139.825 173.626,137.907 172.707 C 133.533 170.611,132.138 170.000,131.731 170.000 C 131.348 170.000,129.603 169.221,126.400 167.619 C 125.449 167.144,125.486 165.150,126.475 163.600 C 126.966 162.830,127.696 161.570,128.098 160.800 C 128.499 160.030,129.265 158.680,129.800 157.800 C 130.334 156.920,131.231 155.345,131.792 154.300 C 133.213 151.656,134.075 151.740,137.942 154.900 C 147.280 162.532,149.632 162.907,154.662 157.564 C 157.355 154.703,163.774 149.366,166.336 147.858 C 167.510 147.166,169.130 146.204,169.936 145.719 C 170.741 145.235,171.850 144.637,172.400 144.391 C 172.950 144.145,174.255 143.507,175.300 142.972 C 176.345 142.437,177.515 141.996,177.900 141.991 C 178.285 141.986,179.392 141.623,180.359 141.184 C 181.327 140.745,183.363 140.126,184.884 139.809 C 192.135 138.297,193.102 136.486,192.040 126.400 C 191.092 117.395,190.535 118.000,199.773 118.000 C 209.274 118.000,208.678 117.532,207.975 124.439 C 206.723 136.725,207.694 138.739,215.460 139.957 C 216.812 140.169,218.612 140.691,219.460 141.117 C 220.307 141.543,221.657 142.011,222.460 142.157 C 223.263 142.302,224.130 142.675,224.387 142.985 C 224.645 143.295,225.361 143.660,225.978 143.795 C 226.596 143.931,227.699 144.482,228.428 145.021 C 229.158 145.559,229.933 146.000,230.150 146.000 C 230.604 146.000,236.936 150.162,238.339 151.383 C 238.856 151.832,241.078 153.910,243.277 156.000 C 251.023 163.362,251.961 163.265,263.273 153.918 C 266.357 151.370,266.541 151.520,271.520 160.600 C 271.882 161.260,272.558 162.430,273.023 163.200 C 274.649 165.894,274.614 167.156,272.895 167.837 C 272.073 168.162,270.660 168.782,269.756 169.214 C 268.852 169.646,267.882 170.000,267.601 170.000 C 267.319 170.000,265.629 170.706,263.845 171.568 C 258.946 173.936,257.487 176.787,259.016 181.000 C 259.335 181.880,259.783 183.770,260.011 185.200 C 260.239 186.630,260.731 188.700,261.105 189.800 C 262.201 193.025,262.088 207.077,260.932 211.400 C 260.461 213.160,259.948 215.392,259.793 216.359 C 259.637 217.327,259.277 218.677,258.994 219.359 C 258.508 220.527,258.261 222.185,258.358 223.642 C 258.432 224.769,261.112 227.891,262.250 228.177 C 262.848 228.327,263.780 228.798,264.322 229.225 C 264.864 229.651,265.689 230.001,266.154 230.001 C 266.619 230.002,267.625 230.384,268.388 230.849 C 269.152 231.315,270.635 231.950,271.684 232.262 C 274.663 233.147,274.696 234.216,271.892 238.884 C 270.260 241.600,267.731 246.191,267.477 246.900 C 267.175 247.739,264.617 247.883,264.120 247.088 C 263.944 246.807,262.360 245.518,260.600 244.225 C 258.840 242.932,256.942 241.453,256.381 240.940 C 253.441 238.245,248.879 238.853,245.382 242.407 C 242.621 245.212,235.552 251.171,233.800 252.171 C 233.140 252.547,231.880 253.287,231.000 253.814 C 228.435 255.351,222.961 258.000,222.350 258.000 C 222.041 258.000,221.140 258.347,220.348 258.772 C 219.556 259.196,218.209 259.660,217.354 259.803 C 208.849 261.222,206.140 264.244,207.225 271.103 C 207.529 273.026,207.783 276.220,207.789 278.200 L 207.800 281.800 200.156 281.908 C 193.808 281.998,192.429 281.917,192.022 281.426 C 191.457 280.746,191.995 273.999,193.028 268.800 C 193.356 267.150,193.882 263.370,194.197 260.400 C 194.512 257.430,195.051 253.470,195.395 251.600 C 195.739 249.730,196.061 246.096,196.110 243.525 L 196.200 238.851 194.852 237.457 C 193.567 236.128,192.003 235.386,188.000 234.204 C 182.636 232.621,176.648 228.391,172.137 223.000 C 169.321 219.634,166.042 213.913,166.013 212.315 C 166.006 211.938,165.603 210.678,165.117 209.515 C 162.004 202.061,165.010 186.643,171.160 178.516 C 178.183 169.236,190.110 163.560,201.400 164.127 C 205.482 164.331,212.375 165.967,213.600 167.021 C 213.930 167.305,214.736 167.671,215.390 167.835 C 217.523 168.367,223.132 172.362,225.813 175.258 C 227.887 177.498,230.000 180.251,230.000 180.715 C 230.000 180.913,230.360 181.402,230.800 181.800 C 231.240 182.198,231.600 182.684,231.600 182.879 C 231.600 183.074,232.140 184.388,232.800 185.800 C 233.460 187.212,234.002 188.599,234.005 188.883 C 234.008 189.167,234.391 190.570,234.856 192.000 C 236.600 197.364,235.451 211.053,233.010 214.000 C 232.737 214.330,232.333 215.140,232.112 215.800 C 231.740 216.913,231.073 218.043,228.711 221.555 C 227.270 223.699,221.685 229.134,219.919 230.111 C 219.036 230.600,217.477 231.468,216.456 232.040 C 215.435 232.611,214.088 233.359,213.463 233.701 C 210.734 235.195,209.350 239.110,210.613 241.770 C 212.296 245.318,216.463 246.933,219.606 245.256 C 220.373 244.847,221.447 244.371,221.992 244.200 C 222.538 244.028,223.438 243.584,223.992 243.214 C 224.547 242.843,225.810 241.998,226.800 241.336 C 227.790 240.674,228.915 240.019,229.300 239.879 C 229.685 239.739,230.000 239.483,230.000 239.308 C 230.000 239.134,231.000 238.194,232.222 237.218 C 234.513 235.391,238.973 230.295,240.904 227.300 C 243.583 223.145,243.923 222.533,244.185 221.400 C 244.338 220.740,244.702 219.930,244.994 219.600 C 245.286 219.270,245.741 218.190,246.005 217.200 C 246.268 216.210,246.736 214.912,247.045 214.315 C 247.353 213.718,247.875 210.838,248.205 207.915 C 248.535 204.992,248.901 202.181,249.018 201.668 C 249.248 200.663,248.181 190.698,247.597 188.400 C 247.020 186.127,245.630 182.306,244.833 180.800 C 244.425 180.030,243.956 178.953,243.790 178.408 C 243.623 177.862,243.177 176.962,242.798 176.408 C 242.198 175.532,241.452 174.413,238.391 169.803 C 237.248 168.079,231.404 162.528,228.874 160.763 C 225.423 158.354,221.505 156.017,220.900 156.008 C 220.625 156.004,219.545 155.563,218.500 155.028 C 212.238 151.826,195.177 150.406,188.500 152.532 C 187.345 152.899,185.477 153.466,184.349 153.791 C 176.088 156.170,164.554 164.810,159.776 172.200 C 157.112 176.321,157.221 176.121,154.993 181.000 C 152.932 185.514,152.366 187.624,151.541 193.882 L 150.682 200.405 151.515 206.702 C 152.032 210.613,152.657 213.682,153.165 214.800 C 153.615 215.790,153.986 216.920,153.991 217.311 C 153.999 217.947,155.528 221.251,157.800 225.543 C 158.240 226.375,159.010 227.582,159.512 228.227 C 160.014 228.872,160.824 229.931,161.312 230.581 C 163.211 233.105,169.518 239.115,171.800 240.574 C 173.120 241.417,174.650 242.407,175.200 242.773 C 175.750 243.139,177.280 243.951,178.600 244.577 C 182.339 246.352,182.500 246.565,182.214 249.388 C 181.646 255.001,181.084 259.053,180.753 259.924 C 180.558 260.437,180.219 262.959,180.000 265.528 C 179.782 268.098,179.253 272.180,178.825 274.600 C 175.082 295.796,174.883 295.602,200.311 295.596 L 217.400 295.592 219.441 294.422 C 223.068 292.342,223.199 290.949,221.315 274.509 C 221.104 272.671,220.891 272.872,224.400 271.605 C 225.170 271.327,226.700 270.772,227.800 270.370 C 230.159 269.510,237.524 265.761,238.431 264.958 C 238.779 264.651,239.186 264.400,239.336 264.400 C 239.486 264.400,240.703 263.635,242.040 262.700 C 243.377 261.765,244.860 260.739,245.335 260.419 C 245.811 260.099,247.308 258.884,248.661 257.719 C 251.913 254.920,252.587 254.936,256.317 257.900 C 257.909 259.165,260.236 261.010,261.489 262.000 C 266.174 265.701,267.887 266.139,271.127 264.461 C 273.238 263.368,273.560 262.982,276.195 258.400 C 276.764 257.410,277.753 255.700,278.393 254.600 C 279.033 253.500,279.851 252.060,280.210 251.400 C 280.568 250.740,281.343 249.364,281.931 248.341 C 282.519 247.319,283.501 245.609,284.114 244.541 C 284.727 243.474,285.666 241.880,286.200 241.000 C 286.735 240.120,287.465 238.770,287.824 238.000 C 288.183 237.230,288.793 236.240,289.180 235.800 C 292.583 231.928,290.831 224.746,286.260 223.832 C 285.596 223.699,284.744 223.311,284.366 222.970 C 283.989 222.628,282.752 222.104,281.618 221.805 C 280.483 221.505,279.318 221.064,279.029 220.824 C 278.740 220.584,277.601 220.120,276.499 219.792 C 273.510 218.905,273.412 218.448,274.390 209.994 C 275.418 201.101,274.825 185.905,273.355 183.528 C 272.881 182.761,275.311 180.825,277.566 180.171 C 278.795 179.816,279.996 179.364,280.235 179.168 C 280.474 178.971,281.457 178.533,282.420 178.193 C 290.498 175.343,293.010 170.713,289.384 165.358 C 288.482 164.025,287.164 161.705,286.000 159.400 C 285.555 158.520,284.654 156.990,283.998 156.000 C 283.341 155.010,282.573 153.750,282.292 153.200 C 282.011 152.650,281.156 151.159,280.391 149.887 C 279.626 148.615,278.550 146.780,278.000 145.809 C 274.298 139.274,273.439 137.936,272.373 137.038 C 269.486 134.609,265.026 135.433,261.269 139.088 C 260.977 139.373,260.347 139.812,259.869 140.065 C 259.391 140.318,258.640 140.849,258.200 141.246 C 252.445 146.435,252.685 146.421,247.077 141.900 C 244.553 139.865,241.888 137.840,241.155 137.400 C 240.422 136.960,239.187 136.203,238.411 135.717 C 237.635 135.231,236.280 134.469,235.400 134.022 C 234.520 133.575,233.530 133.040,233.200 132.832 C 231.927 132.030,227.308 130.000,226.757 130.000 C 225.308 130.000,220.345 127.204,220.548 126.502 C 221.793 122.216,222.688 112.153,222.039 109.743 C 221.528 107.847,220.236 106.527,218.367 105.990 C 216.663 105.502,183.077 105.534,181.385 106.025 M191.780 301.953 C 187.089 302.904,185.140 310.514,188.837 313.447 C 191.455 315.525,205.856 315.957,209.681 314.073 C 214.701 311.601,213.826 303.556,208.367 301.990 C 206.907 301.572,193.806 301.542,191.780 301.953 M196.978 321.959 C 193.239 323.585,192.295 329.682,195.314 332.701 C 197.605 334.992,202.399 334.988,204.693 332.693 C 209.700 327.687,203.533 319.107,196.978 321.959 " stroke="none" fill="#fffdff" fill-rule="evenodd"></path></g></svg>