<svg width="425" height="425" xmlns="http://www.w3.org/2000/svg" xml:space="preserve" version="1.1">
 <title>eth_ai_center_logo_rgb_positiv_RGB, negativ</title>

 <g>
  <title>Layer 1</title>
  <g id="svg_22">
   <path id="svg_2" fill="#D20C52" d="m294.3,72.8c-9.6,0 -19.2,1.1 -28.6,3.3c45.4,41.4 48.7,111.7 7.3,157.1c-21.4,23.5 -51.8,36.7 -83.5,36.3c38.9,57.9 117.4,73.2 175.2,34.3c57.9,-38.9 73.2,-117.4 34.3,-175.2c-23.4,-34.9 -62.7,-55.8 -104.7,-55.8z" class="st0"/>
   <path id="svg_3" fill="#B71E61" d="m265.7,76c-1.5,-1.3 -3,-2.6 -4.5,-3.9c-47.6,-38.9 -117.7,-31.8 -156.6,15.8c-7.5,9.1 -13.4,19.3 -17.7,30.3c44.6,0.1 80.7,36.3 80.7,80.9c0,22.4 -9.4,43.8 -25.8,59.1c14.8,7.3 31.1,11.1 47.7,11.3c-38.9,-57.9 -23.5,-136.4 34.4,-175.3c12.7,-8.5 26.8,-14.7 41.8,-18.2z" class="st1"/>
   <path id="svg_4" fill="#DD2589" d="m276.9,228.7c37.4,-45.8 32.5,-112.8 -11.2,-152.6c-67.9,15.8 -110.2,83.7 -94.4,151.6c3.5,14.9 9.6,29.1 18.2,41.8c33.8,0.4 66,-14.6 87.4,-40.8z" class="st2"/>
   <path id="svg_5" fill="#781F90" d="m29.3,255.9c-20.9,28 -15.1,67.6 12.8,88.5c12,9 26.8,13.4 41.7,12.4c-17.3,-22 -13.4,-53.8 8.6,-71c13.8,-10.9 32.4,-13.8 48.9,-7.6c-1.3,-5.1 -3.2,-10 -5.7,-14.7c-32.3,24.4 -77.8,21.2 -106.3,-7.6l0,0z" class="st3"/>
   <path id="svg_6" fill="#9A2578" d="m86.9,118.2c-44.6,0 -80.8,36.1 -80.9,80.8c0,21.3 8.4,41.8 23.3,56.9c0.6,-0.7 1.1,-1.5 1.7,-2.2c22.1,-27 62,-31 89,-8.9c6.3,5.2 11.6,11.5 15.5,18.7c2.2,-1.6 4.3,-3.4 6.3,-5.3c-51.8,-25.3 -75.7,-86.1 -54.9,-140z" class="st4"/>
   <path id="svg_7" fill="#D10882" d="m164.4,176.4c-10.1,-34.4 -41.6,-58.1 -77.5,-58.2c-20.8,53.8 3.1,114.6 54.9,140c22.4,-20.8 31.1,-52.5 22.6,-81.8z" class="st5"/>
   <path id="svg_8" fill="#AF1D99" d="m120.1,244.7c-27,-22.1 -66.9,-18.1 -89,8.9c-0.6,0.7 -1.2,1.5 -1.7,2.2c28.5,28.8 73.9,32 106.2,7.6c-3.9,-7.1 -9.2,-13.5 -15.5,-18.7z" class="st6"/>
   <path id="svg_9" fill="#67129A" d="m129,333.7c-11.1,13.7 -27.5,22 -45.1,23.1c17.3,22 49.1,25.8 71,8.6c22,-17.3 25.8,-49.1 8.6,-71c-5.8,-7.3 -13.4,-12.9 -22.2,-16.2c5,19.4 0.4,40 -12.3,55.5z" class="st7"/>
   <path id="svg_10" fill="#8A19A6" d="m109.5,277c-26.8,7.8 -42.2,35.9 -34.4,62.7c1.8,6.2 4.8,12 8.8,17.1c34.9,-2.1 61.4,-32.1 59.2,-67c-0.2,-3.9 -0.9,-7.9 -1.8,-11.7c-10.2,-3.8 -21.3,-4.2 -31.8,-1.1z" class="st8"/>
  </g>
 </g>
</svg>