<?xml version="1.0" standalone="no"?>
<!DOCTYPE svg PUBLIC "-//W3C//DTD SVG 20010904//EN"
 "http://www.w3.org/TR/2001/REC-SVG-20010904/DTD/svg10.dtd">
<svg version="1.0" xmlns="http://www.w3.org/2000/svg"
 width="176.000000pt" height="57.000000pt" viewBox="0 0 176.000000 57.000000"
 preserveAspectRatio="xMidYMid meet">

<g transform="translate(0.000000,57.000000) scale(0.100000,-0.100000)"
fill="#000000" stroke="none">
<path d="M952 495 c-7 -14 -12 -35 -12 -45 0 -20 -10 -20 -470 -20 l-470 0 0
-216 0 -215 52 3 53 3 3 130 c2 102 6 133 19 147 9 10 19 18 24 18 4 0 8 -55
8 -123 1 -112 0 -125 -19 -142 -11 -10 -20 -22 -20 -27 0 -4 199 -7 443 -6
l442 3 3 92 c2 65 7 95 17 103 23 19 18 26 -17 22 -29 -3 -40 4 -98 62 l-64
66 -90 0 c-88 0 -89 0 -71 20 16 17 31 20 113 20 l94 0 81 -81 80 -81 81 81
81 81 174 0 c173 0 174 0 156 -20 -17 -18 -31 -20 -172 -20 l-154 0 -79 -83
-80 -82 0 -66 c0 -53 -4 -69 -20 -84 -11 -10 -20 -22 -20 -27 0 -4 34 -8 75
-8 l75 0 0 125 c0 99 3 131 16 150 9 14 20 25 25 25 5 0 9 -57 9 -127 0 -116
-2 -129 -22 -150 l-21 -23 291 0 c285 0 292 0 292 20 0 17 -7 20 -41 20 -39 0
-48 6 -134 91 l-93 91 -86 1 -86 2 0 -67 0 -68 88 0 87 -1 -29 -25 c-26 -23
-35 -25 -110 -22 l-81 3 -3 89 c-3 80 -1 91 19 112 20 22 31 24 114 24 l91 0
59 60 c36 36 68 60 81 60 17 0 4 -17 -60 -80 l-81 -80 40 0 c37 0 47 -7 133
-92 l92 -93 -2 193 -3 193 -287 2 -287 2 -14 -36 c-19 -49 -59 -74 -118 -74
-39 0 -53 5 -78 29 -17 17 -31 33 -31 37 0 4 13 -5 29 -21 32 -32 69 -45 105
-36 28 7 44 36 18 31 -9 -1 -23 2 -29 8 -7 5 -13 6 -13 3 0 -4 -11 4 -23 18
-13 14 -27 23 -30 21 -4 -3 -5 -2 -2 2 3 3 -3 15 -12 26 -13 15 -14 18 -3 12
12 -6 13 -5 3 6 -7 7 -13 17 -13 22 0 4 6 5 13 1 7 -5 7 -1 -3 12 -8 10 -15
20 -16 22 0 1 -6 -9 -12 -23z m-537 -125 c-17 -19 -31 -20 -213 -20 -194 0
-195 0 -177 20 17 19 31 20 213 20 194 0 195 0 177 -20z m220 0 c-16 -17 -31
-20 -108 -20 -89 0 -90 0 -72 20 16 17 31 20 108 20 89 0 90 0 72 -20z m-226
-126 c-21 -23 -30 -25 -89 -23 l-65 3 -3 -67 -3 -67 91 0 90 0 0 67 c0 55 4
71 22 90 19 21 30 23 111 23 l90 0 -24 -26 c-22 -23 -30 -25 -86 -22 l-63 3 0
-67 0 -68 87 0 86 0 -23 -25 c-21 -23 -31 -25 -107 -25 -75 0 -84 2 -91 21
l-8 20 -18 -20 c-17 -18 -31 -21 -108 -21 l-88 0 0 92 c0 80 3 95 22 115 19
21 30 23 111 23 l90 0 -24 -26z m446 10 c24 -16 25 -21 25 -115 l0 -99 -84 0
c-76 0 -88 3 -113 25 l-28 24 93 1 93 0 -3 67 -3 67 -65 -3 c-59 -2 -68 0 -89
23 l-24 26 87 0 c63 0 93 -4 111 -16z"/>
</g>
</svg>
