<?xml version="1.0" standalone="no"?>
<!DOCTYPE svg PUBLIC "-//W3C//DTD SVG 20010904//EN"
 "http://www.w3.org/TR/2001/REC-SVG-20010904/DTD/svg10.dtd">
<svg version="1.0" xmlns="http://www.w3.org/2000/svg"
 width="2560.000000pt" height="751.000000pt" viewBox="0 0 2560.000000 751.000000"
 preserveAspectRatio="xMidYMid meet">

<g transform="translate(0.000000,751.000000) scale(0.100000,-0.100000)"
fill="#000000" stroke="none">
<path d="M0 3755 l0 -3755 4642 0 c2553 0 4638 4 4633 8 -6 4 -42 34 -81 65
-291 233 -496 578 -578 973 -61 292 -60 243 -63 2177 l-4 1767 850 0 851 0 3
-1792 c3 -2012 -3 -1852 78 -2017 83 -169 254 -295 454 -336 104 -21 296 -21
394 -1 278 60 465 240 528 506 16 70 17 203 20 1858 l4 1782 855 0 856 0 -5
-1647 c-5 -1660 -6 -1732 -42 -1983 -80 -550 -315 -994 -684 -1291 l-80 -64
624 -3 c344 -1 906 -1 1250 0 l625 3 -60 46 c-413 315 -751 837 -904 1394
-333 1216 78 2532 1008 3223 372 277 793 441 1296 504 137 17 581 17 720 0
387 -47 699 -137 1015 -292 508 -248 909 -622 1168 -1089 26 -46 47 -85 47
-87 0 -5 -1412 -705 -1415 -702 -1 2 -34 68 -73 148 -94 193 -175 314 -291
430 -142 143 -284 223 -477 272 -75 19 -116 23 -264 23 -151 0 -187 -3 -265
-24 -109 -28 -255 -95 -340 -155 -136 -98 -273 -261 -355 -425 -232 -465 -220
-1342 25 -1831 153 -305 371 -485 675 -556 155 -37 393 -34 552 6 101 26 248
94 332 154 86 61 216 201 282 301 59 90 118 210 157 316 13 36 28 63 35 61 7
-1 332 -156 722 -344 l709 -341 -29 -58 c-201 -397 -437 -684 -764 -928 l-69
-51 772 0 771 0 0 2500 0 2500 845 0 845 0 0 -1970 0 -1970 1095 0 1095 0 0
-530 0 -530 805 0 805 0 0 3755 0 3755 -12800 0 -12800 0 0 -3755z m6824 1129
c10 -4 12 -23 9 -83 -4 -62 -2 -81 11 -93 9 -9 13 -23 10 -31 -3 -9 23 -33 81
-72 135 -91 190 -177 202 -318 5 -57 11 -72 36 -99 l30 -31 -18 -34 c-16 -29
-17 -39 -7 -67 7 -18 12 -45 12 -60 0 -21 -4 -26 -17 -22 -10 2 -104 23 -208
46 l-190 42 -207 -46 c-114 -25 -210 -46 -213 -46 -9 0 -5 59 5 65 15 9 12 79
-5 101 -18 23 -19 34 -4 34 7 0 22 12 34 26 17 20 24 43 28 99 10 134 67 222
203 312 84 55 95 67 72 76 -9 3 -5 11 11 22 22 17 23 23 18 95 -4 68 -2 78 15
89 10 6 23 24 29 38 l10 27 20 -32 c10 -18 25 -35 33 -38z m412 -989 c243 -52
445 -95 448 -95 14 0 5 -41 -13 -57 -10 -10 -21 -35 -25 -55 -5 -27 -12 -38
-24 -38 -10 0 -25 -12 -34 -28 -14 -24 -16 -63 -14 -307 2 -154 6 -299 11
-322 7 -41 9 -43 41 -43 l34 0 0 -60 0 -60 40 0 41 0 -3 -62 -3 -63 -960 0
-960 0 -3 63 -3 62 36 0 35 0 0 60 0 60 35 0 c33 0 35 2 35 35 0 19 5 35 10
35 15 0 13 572 -1 604 -7 14 -21 26 -32 28 -16 2 -23 14 -29 43 -5 22 -15 43
-23 48 -8 4 -15 19 -15 32 0 19 7 25 33 30 17 4 214 46 437 95 223 48 418 88
435 89 16 0 228 -42 471 -94z"/>
<path d="M6088 3622 c-14 -23 -16 -68 -18 -299 0 -178 3 -280 10 -293 9 -17
21 -20 85 -20 40 0 80 3 89 6 14 5 16 41 16 295 0 197 -4 296 -12 314 -10 23
-16 25 -82 25 -68 0 -73 -2 -88 -28z"/>
<path d="M6388 3622 c-14 -23 -16 -68 -18 -299 0 -178 3 -280 10 -293 9 -17
21 -20 85 -20 40 0 80 3 89 6 14 5 16 41 16 295 0 197 -4 296 -12 314 -10 23
-16 25 -82 25 -68 0 -73 -2 -88 -28z"/>
<path d="M6688 3622 c-14 -23 -16 -68 -18 -299 0 -178 3 -280 10 -293 9 -17
21 -20 85 -20 40 0 80 3 89 6 14 5 16 41 16 295 0 197 -4 296 -12 314 -10 23
-16 25 -82 25 -68 0 -73 -2 -88 -28z"/>
<path d="M6988 3622 c-14 -23 -16 -68 -18 -299 0 -178 3 -280 10 -293 9 -17
21 -20 85 -20 40 0 80 3 89 6 14 5 16 41 16 295 0 197 -4 296 -12 314 -10 23
-16 25 -82 25 -68 0 -73 -2 -88 -28z"/>
<path d="M7288 3622 c-14 -23 -16 -68 -18 -299 0 -178 3 -280 10 -293 9 -17
21 -20 85 -20 40 0 80 3 89 6 14 5 16 41 16 295 0 197 -4 296 -12 314 -10 23
-16 25 -82 25 -68 0 -73 -2 -88 -28z"/>
</g>
</svg>
